#!OML:ASF E:\Steps\Project 1\Capture day 1\Session 2\Subject.ASF
:FULLY-SPECIFIED
:DEGREES
67
root 9.03427 16.2252 31.5029 -159.168 -1.91786 179.024
lowerback -27.1401 -2.05836 -5.61663
upperback -0.947091 -1.37875 -0.464684
thorax 14.2598 -1.18367 2.11835
lowerneck -3.32393 -1.70515 -0.720019
upperneck 10.8565 -2.14379 2.11576
head 4.18351 -0.85461 0.744186
rclavicle -1.53561e-014 -1.74931e-014
rhumerus -38.5808 -29.3485 -70.1008
rradius 18.8291
rwrist 14.6082
rhand -5.82511 -51.1468
rfingers 7.12502
rthumb 20.0005 -80.1374
lclavicle -1.53561e-014 -1.74931e-014
lhumerus -33.3701 21.2995 70.6905
lradius 5.20599
lwrist -24.0873
lhand -20.1509 -7.78772
lfingers 7.12502
lthumb 6.19417 22.1017
rfemur -20.7735 8.57682 19.9419
rtibia 11.0641
rfoot -20.8983 -9.18565
rtoes -22.4049
lfemur -22.9067 -10.1501 -19.9811
ltibia 12.9423
lfoot -9.783 2.27988
ltoes -36.9288
68
root 9.03628 16.2244 31.5043 -159.226 -1.91419 179.034
lowerback -27.1006 -2.07413 -5.62934
upperback -0.92047 -1.39589 -0.434479
thorax 14.2729 -1.19199 2.15483
lowerneck -3.41832 -1.69532 -0.701643
upperneck 10.8763 -2.12929 2.05702
head 4.20784 -0.850095 0.721417
rclavicle 3.27995e-015 -1.19271e-014
rhumerus -38.6115 -29.4234 -69.9885
rradius 18.7914
rwrist 14.7439
rhand -5.9047 -51.501
rfingers 7.12502
rthumb 19.924 -80.4997
lclavicle 3.27995e-015 -1.19271e-014
lhumerus -33.6744 21.4268 70.4553
lradius 5.59876
lwrist -24.1908
lhand -20.0166 -7.95349
lfingers 7.12502
lthumb 6.3238 21.9321
rfemur -20.7063 8.61625 19.9666
rtibia 11.0517
rfoot -20.9018 -9.19034
rtoes -22.329
lfemur -22.8727 -9.85361 -20.022
ltibia 13.0039
lfoot -9.76291 1.87789
ltoes -35.9974
69
root 9.0386 16.2245 31.5067 -159.283 -1.95065 179.066
lowerback -27.0672 -2.03208 -5.59767
upperback -0.874188 -1.34055 -0.456781
thorax 14.3041 -1.16247 2.13269
lowerneck -3.45528 -1.7303 -0.603678
upperneck 10.892 -2.17929 2.01111
head 4.2193 -0.872532 0.686113
rclavicle 4.32357e-015 -1.86858e-014
rhumerus -38.6097 -29.4456 -70.0464
rradius 18.7842
rwrist 14.6049
rhand -5.86276 -51.643
rfingers 7.12502
rthumb 19.9643 -80.6375
lclavicle 4.32357e-015 -1.86858e-014
lhumerus -33.7743 21.3783 70.2339
lradius 5.87783
lwrist -24.2961
lhand -19.9449 -8.24282
lfingers 7.12502
lthumb 6.39297 21.6407
rfemur -20.6405 8.61835 20.0368
rtibia 11.0747
rfoot -20.9655 -9.23088
rtoes -22.5048
lfemur -22.7979 -9.96022 -19.9773
ltibia 12.9835
lfoot -9.7964 1.95975
ltoes -36.2876
70
root 9.04079 16.2244 31.5093 -159.336 -1.96969 179.132
lowerback -27.0097 -1.97323 -5.51204
upperback -0.848632 -1.28468 -0.474793
thorax 14.2962 -1.1288 2.08542
lowerneck -3.5075 -1.75902 -0.533935
upperneck 10.9119 -2.22008 1.97134
head 4.23568 -0.891406 0.658197
rclavicle -5.1684e-015 -2.74323e-014
rhumerus -38.5959 -29.2926 -70.2045
rradius 18.8163
rwrist 14.2973
rhand -5.89662 -51.6269
rfingers 7.12502
rthumb 19.9317 -80.6247
lclavicle -5.1684e-015 -2.74323e-014
lhumerus -33.9372 21.3367 69.996
lradius 6.28041
lwrist -24.448
lhand -20.0258 -8.26851
lfingers 7.12502
lthumb 6.3149 21.6174
rfemur -20.597 8.66069 20.1338
rtibia 11.1089
rfoot -21.0101 -9.31308
rtoes -22.7663
lfemur -22.7742 -9.85197 -19.913
ltibia 13.0156
lfoot -9.85595 1.92824
ltoes -37.1868
71
root 9.0441 16.2249 31.5136 -159.368 -1.95495 179.134
lowerback -26.9489 -1.93317 -5.50378
upperback -0.826347 -1.23036 -0.497561
thorax 14.2843 -1.10133 2.07645
lowerneck -3.60562 -1.76963 -0.511222
upperneck 10.9399 -2.23474 1.93032
head 4.26451 -0.899844 0.639116
rclavicle 6.65929e-015 5.56597e-015
rhumerus -38.5506 -29.0223 -70.4197
rradius 18.9135
rwrist 13.8858
rhand -5.96753 -51.5719
rfingers 7.12502
rthumb 19.8636 -80.5768
lclavicle 6.65929e-015 5.56597e-015
lhumerus -34.0869 21.347 69.7976
lradius 6.76223
lwrist -24.5447
lhand -19.9758 -8.22775
lfingers 7.12502
lthumb 6.36317 21.6567
rfemur -20.5681 8.8007 20.1392
rtibia 11.0775
rfoot -20.9642 -9.46363
rtoes -23.1369
lfemur -22.7822 -9.76205 -19.8932
ltibia 13.0729
lfoot -9.89199 1.79199
ltoes -36.6523
72
root 9.04647 16.2257 31.5169 -159.379 -1.9253 179.101
lowerback -26.9476 -1.90271 -5.53363
upperback -0.810928 -1.17576 -0.522041
thorax 14.2976 -1.07784 2.08624
lowerneck -3.65305 -1.77532 -0.514398
upperneck 10.9626 -2.23914 1.89072
head 4.28162 -0.903915 0.625899
rclavicle -7.20594e-015 -7.15625e-015
rhumerus -38.5353 -28.8848 -70.5221
rradius 18.9826
rwrist 13.7327
rhand -5.98094 -51.6607
rfingers 7.12502
rthumb 19.8507 -80.667
lclavicle -7.20594e-015 -7.15625e-015
lhumerus -34.2055 21.3841 69.6344
lradius 7.17076
lwrist -24.6433
lhand -19.8065 -8.46515
lfingers 7.12502
lthumb 6.52663 21.4143
rfemur -20.5651 8.90758 20.0868
rtibia 11.0462
rfoot -20.9394 -9.52784
rtoes -23.3654
lfemur -22.7809 -9.82058 -19.9063
ltibia 13.0685
lfoot -9.8601 1.83985
ltoes -36.062
73
root 9.04807 16.2261 31.5199 -159.36 -1.934 179.037
lowerback -26.9644 -1.91054 -5.60768
upperback -0.81179 -1.16128 -0.537169
thorax 14.3057 -1.07655 2.11644
lowerneck -3.67812 -1.77815 -0.523787
upperneck 10.9823 -2.23835 1.84964
head 4.29318 -0.905667 0.613676
rclavicle 5.91384e-015 2.78299e-015
rhumerus -38.5473 -29.0014 -70.4511
rradius 18.9401
rwrist 13.9729
rhand -5.95376 -51.7383
rfingers 7.12502
rthumb 19.8768 -80.7418
lclavicle 5.91384e-015 2.78299e-015
lhumerus -34.3197 21.4764 69.4978
lradius 7.49219
lwrist -24.7578
lhand -19.6163 -8.96477
lfingers 7.12502
lthumb 6.71024 20.9089
rfemur -20.6024 8.85625 20.0113
rtibia 11.0755
rfoot -21.0221 -9.4559
rtoes -23.2409
lfemur -22.8201 -9.82782 -19.9808
ltibia 13.0589
lfoot -9.86193 1.90738
ltoes -37.1439
